<svg version="1.1" xmlns="http://www.w3.org/2000/svg" xmlns:xlink="http://www.w3.org/1999/xlink" width="697" height="602"><defs/><g><g transform="translate(-86,-150) scale(1,1)"><rect fill="#C0C0C0" stroke="none" x="103" y="167" width="227" height="460" opacity="0.2"/></g><g transform="translate(-86,-150) scale(1,1)"><rect fill="#ffffff" stroke="none" x="96" y="160" width="227" height="460"/></g><g transform="translate(-86,-150) scale(1,1)"><path fill="none" stroke="#000000" d="M 96 160 L 323 160 L 323 620 L 96 620 L 96 160 Z Z" stroke-miterlimit="10"/></g><g transform="translate(-86,-150) scale(1,1)"><path fill="none" stroke="#000000" d="M 96 185 L 323 185" stroke-miterlimit="10"/></g><g transform="translate(-86,-150) scale(1,1)"><path fill="none" stroke="#000000" d="M 96 328 L 323 328" stroke-miterlimit="10"/></g><g transform="translate(-86,-150) scale(1,1)"><g><path fill="none" stroke="none"/><text fill="#000000" stroke="none" font-family="Arial" font-size="13px" font-style="normal" font-weight="bold" text-decoration="none" x="189" y="179.5">Record</text></g></g><g transform="translate(-86,-150) scale(1,1)"><g><path fill="none" stroke="none"/><text fill="#000000" stroke="none" font-family="Arial" font-size="13px" font-style="normal" font-weight="normal" text-decoration="none" x="101" y="202.5">-name: String</text></g></g><g transform="translate(-86,-150) scale(1,1)"><g><path fill="none" stroke="none"/><text fill="#000000" stroke="none" font-family="Arial" font-size="13px" font-style="normal" font-weight="normal" text-decoration="none" x="101" y="217.5">-date: Date</text></g></g><g transform="translate(-86,-150) scale(1,1)"><g><path fill="none" stroke="none"/><text fill="#000000" stroke="none" font-family="Arial" font-size="13px" font-style="normal" font-weight="normal" text-decoration="none" x="101" y="232.5">-neck: int</text></g></g><g transform="translate(-86,-150) scale(1,1)"><g><path fill="none" stroke="none"/><text fill="#000000" stroke="none" font-family="Arial" font-size="13px" font-style="normal" font-weight="normal" text-decoration="none" x="101" y="247.5">-bust: int</text></g></g><g transform="translate(-86,-150) scale(1,1)"><g><path fill="none" stroke="none"/><text fill="#000000" stroke="none" font-family="Arial" font-size="13px" font-style="normal" font-weight="normal" text-decoration="none" x="101" y="262.5">-chest: int</text></g></g><g transform="translate(-86,-150) scale(1,1)"><g><path fill="none" stroke="none"/><text fill="#000000" stroke="none" font-family="Arial" font-size="13px" font-style="normal" font-weight="normal" text-decoration="none" x="101" y="277.5">-waist: int</text></g></g><g transform="translate(-86,-150) scale(1,1)"><g><path fill="none" stroke="none"/><text fill="#000000" stroke="none" font-family="Arial" font-size="13px" font-style="normal" font-weight="normal" text-decoration="none" x="101" y="292.5">-hip: int</text></g></g><g transform="translate(-86,-150) scale(1,1)"><g><path fill="none" stroke="none"/><text fill="#000000" stroke="none" font-family="Arial" font-size="13px" font-style="normal" font-weight="normal" text-decoration="none" x="101" y="307.5">-inseam: int</text></g></g><g transform="translate(-86,-150) scale(1,1)"><g><path fill="none" stroke="none"/><text fill="#000000" stroke="none" font-family="Arial" font-size="13px" font-style="normal" font-weight="normal" text-decoration="none" x="101" y="322.5">-comment: String</text></g></g><g transform="translate(-86,-150) scale(1,1)"><g><path fill="none" stroke="none"/><text fill="#000000" stroke="none" font-family="Arial" font-size="13px" font-style="normal" font-weight="normal" text-decoration="none" x="101" y="345.5">+getName(): String</text></g></g><g transform="translate(-86,-150) scale(1,1)"><g><path fill="none" stroke="none"/><text fill="#000000" stroke="none" font-family="Arial" font-size="13px" font-style="normal" font-weight="normal" text-decoration="none" x="101" y="360.5">+getDate(): Date</text></g></g><g transform="translate(-86,-150) scale(1,1)"><g><path fill="none" stroke="none"/><text fill="#000000" stroke="none" font-family="Arial" font-size="13px" font-style="normal" font-weight="normal" text-decoration="none" x="101" y="375.5">+getNeck(): int</text></g></g><g transform="translate(-86,-150) scale(1,1)"><g><path fill="none" stroke="none"/><text fill="#000000" stroke="none" font-family="Arial" font-size="13px" font-style="normal" font-weight="normal" text-decoration="none" x="101" y="390.5">+getBust(): int</text></g></g><g transform="translate(-86,-150) scale(1,1)"><g><path fill="none" stroke="none"/><text fill="#000000" stroke="none" font-family="Arial" font-size="13px" font-style="normal" font-weight="normal" text-decoration="none" x="101" y="405.5">+getChest(): int</text></g></g><g transform="translate(-86,-150) scale(1,1)"><g><path fill="none" stroke="none"/><text fill="#000000" stroke="none" font-family="Arial" font-size="13px" font-style="normal" font-weight="normal" text-decoration="none" x="101" y="420.5">+getWaist(): int</text></g></g><g transform="translate(-86,-150) scale(1,1)"><g><path fill="none" stroke="none"/><text fill="#000000" stroke="none" font-family="Arial" font-size="13px" font-style="normal" font-weight="normal" text-decoration="none" x="101" y="435.5">+getHip(): int</text></g></g><g transform="translate(-86,-150) scale(1,1)"><g><path fill="none" stroke="none"/><text fill="#000000" stroke="none" font-family="Arial" font-size="13px" font-style="normal" font-weight="normal" text-decoration="none" x="101" y="450.5">+getInseam(): int</text></g></g><g transform="translate(-86,-150) scale(1,1)"><g><path fill="none" stroke="none"/><text fill="#000000" stroke="none" font-family="Arial" font-size="13px" font-style="normal" font-weight="normal" text-decoration="none" x="101" y="465.5">+getComment(): int</text></g></g><g transform="translate(-86,-150) scale(1,1)"><g><path fill="none" stroke="none"/><text fill="#000000" stroke="none" font-family="Arial" font-size="13px" font-style="normal" font-weight="normal" text-decoration="none" x="101" y="480.5">+setName(name: String): void</text></g></g><g transform="translate(-86,-150) scale(1,1)"><g><path fill="none" stroke="none"/><text fill="#000000" stroke="none" font-family="Arial" font-size="13px" font-style="normal" font-weight="normal" text-decoration="none" x="101" y="495.5">+setDate(date: Date): void</text></g></g><g transform="translate(-86,-150) scale(1,1)"><g><path fill="none" stroke="none"/><text fill="#000000" stroke="none" font-family="Arial" font-size="13px" font-style="normal" font-weight="normal" text-decoration="none" x="101" y="510.5">+setNeck(neck: int): void</text></g></g><g transform="translate(-86,-150) scale(1,1)"><g><path fill="none" stroke="none"/><text fill="#000000" stroke="none" font-family="Arial" font-size="13px" font-style="normal" font-weight="normal" text-decoration="none" x="101" y="525.5">+setBust(bust: int): void</text></g></g><g transform="translate(-86,-150) scale(1,1)"><g><path fill="none" stroke="none"/><text fill="#000000" stroke="none" font-family="Arial" font-size="13px" font-style="normal" font-weight="normal" text-decoration="none" x="101" y="540.5">+setChest(chest: int): void</text></g></g><g transform="translate(-86,-150) scale(1,1)"><g><path fill="none" stroke="none"/><text fill="#000000" stroke="none" font-family="Arial" font-size="13px" font-style="normal" font-weight="normal" text-decoration="none" x="101" y="555.5">+setWaist(waist: int): void</text></g></g><g transform="translate(-86,-150) scale(1,1)"><g><path fill="none" stroke="none"/><text fill="#000000" stroke="none" font-family="Arial" font-size="13px" font-style="normal" font-weight="normal" text-decoration="none" x="101" y="570.5">+setHip(hip: int): void</text></g></g><g transform="translate(-86,-150) scale(1,1)"><g><path fill="none" stroke="none"/><text fill="#000000" stroke="none" font-family="Arial" font-size="13px" font-style="normal" font-weight="normal" text-decoration="none" x="101" y="585.5">+setInseam(inseam: int): void</text></g></g><g transform="translate(-86,-150) scale(1,1)"><g><path fill="none" stroke="none"/><text fill="#000000" stroke="none" font-family="Arial" font-size="13px" font-style="normal" font-weight="normal" text-decoration="none" x="101" y="600.5">+setComment(comment: String): void</text></g></g><g transform="translate(-86,-150) scale(1,1)"><g><path fill="none" stroke="none"/><text fill="#000000" stroke="none" font-family="Arial" font-size="13px" font-style="normal" font-weight="normal" text-decoration="none" x="101" y="615.5">+toString(): String</text></g></g><g transform="translate(-86,-150) scale(1,1)"><rect fill="#C0C0C0" stroke="none" x="503" y="383" width="277" height="64" opacity="0.2"/></g><g transform="translate(-86,-150) scale(1,1)"><rect fill="#ffffff" stroke="none" x="496" y="376" width="277" height="64"/></g><g transform="translate(-86,-150) scale(1,1)"><path fill="none" stroke="#000000" d="M 496 376 L 773 376 L 773 440 L 496 440 L 496 376 Z Z" stroke-miterlimit="10"/></g><g transform="translate(-86,-150) scale(1,1)"><path fill="none" stroke="#000000" d="M 496 401 L 773 401" stroke-miterlimit="10"/></g><g transform="translate(-86,-150) scale(1,1)"><path fill="none" stroke="#000000" d="M 496 411 L 773 411" stroke-miterlimit="10"/></g><g transform="translate(-86,-150) scale(1,1)"><g><path fill="none" stroke="none"/><text fill="#000000" stroke="none" font-family="Arial" font-size="13px" font-style="normal" font-weight="bold" text-decoration="none" x="596.5" y="395.5">ArrayAdapter</text></g></g><g transform="translate(-86,-150) scale(1,1)"><g><path fill="none" stroke="none"/><text fill="#000000" stroke="none" font-family="Arial" font-size="13px" font-style="normal" font-weight="normal" text-decoration="none" x="501" y="428.5">+notifyDataSetChanged(): void</text></g></g><g transform="translate(-86,-150) scale(1,1)"><rect fill="#C0C0C0" stroke="none" x="391" y="167" width="203" height="115" opacity="0.2"/></g><g transform="translate(-86,-150) scale(1,1)"><rect fill="#ffffff" stroke="none" x="384" y="160" width="203" height="115"/></g><g transform="translate(-86,-150) scale(1,1)"><path fill="none" stroke="#000000" d="M 384 160 L 587 160 L 587 275 L 384 275 L 384 160 Z Z" stroke-miterlimit="10"/></g><g transform="translate(-86,-150) scale(1,1)"><path fill="none" stroke="#000000" d="M 384 185 L 587 185" stroke-miterlimit="10"/></g><g transform="translate(-86,-150) scale(1,1)"><path fill="none" stroke="#000000" d="M 384 208 L 587 208" stroke-miterlimit="10"/></g><g transform="translate(-86,-150) scale(1,1)"><g><path fill="none" stroke="none"/><text fill="#000000" stroke="none" font-family="Arial" font-size="13px" font-style="normal" font-weight="bold" text-decoration="none" x="454.5" y="179.5">RecordList</text></g></g><g transform="translate(-86,-150) scale(1,1)"><g><path fill="none" stroke="none"/><text fill="#000000" stroke="none" font-family="Arial" font-size="13px" font-style="normal" font-weight="normal" text-decoration="none" x="389" y="202.5">+size: int</text></g></g><g transform="translate(-86,-150) scale(1,1)"><g><path fill="none" stroke="none"/><text fill="#000000" stroke="none" font-family="Arial" font-size="13px" font-style="normal" font-weight="normal" text-decoration="none" x="389" y="225.5">+size(): int</text></g></g><g transform="translate(-86,-150) scale(1,1)"><g><path fill="none" stroke="none"/><text fill="#000000" stroke="none" font-family="Arial" font-size="13px" font-style="normal" font-weight="normal" text-decoration="none" x="389" y="240.5">+set(position: int, record: Record)</text></g></g><g transform="translate(-86,-150) scale(1,1)"><g><path fill="none" stroke="none"/><text fill="#000000" stroke="none" font-family="Arial" font-size="13px" font-style="normal" font-weight="normal" text-decoration="none" x="389" y="255.5">+add(record: Record)</text></g></g><g transform="translate(-86,-150) scale(1,1)"><g><path fill="none" stroke="none"/><text fill="#000000" stroke="none" font-family="Arial" font-size="13px" font-style="normal" font-weight="normal" text-decoration="none" x="389" y="270.5">+remove(position: int)</text></g></g><g transform="translate(-86,-150) scale(1,1)"><path fill="none" stroke="#000000" d="M 324 318 L 391 276" stroke-miterlimit="10"/></g><g transform="translate(-86,-150) scale(1,1)"><path fill="#FFFFFF" stroke="none" d="M 384.62511982144713 284.9644242820771 L 391 276 L 380.1534737972035 277.83108419578366 L 372.3596840547618 287.6849741746269"/></g><g transform="translate(-86,-150) scale(1,1)"><path fill="none" stroke="#000000" d="M 384.62511982144713 284.9644242820771 L 391 276 L 380.1534737972035 277.83108419578366 L 372.3596840547618 287.6849741746269 L 384.62511982144713 284.9644242820771" stroke-miterlimit="10"/></g><g transform="translate(-86,-150) scale(1,1)"><g><path fill="none" stroke="none"/><text fill="#000000" stroke="none" font-family="Arial" font-size="13px" font-style="normal" font-weight="normal" text-decoration="none" x="345.5" y="323.5">*</text></g></g><g transform="translate(-86,-150) scale(1,1)"><g><path fill="none" stroke="none"/><text fill="#000000" stroke="none" font-family="Arial" font-size="13px" font-style="normal" font-weight="normal" text-decoration="none" x="375.5" y="304.5">1</text></g></g><g transform="translate(-86,-150) scale(1,1)"><rect fill="#C0C0C0" stroke="none" x="431" y="559" width="197" height="190" opacity="0.2"/></g><g transform="translate(-86,-150) scale(1,1)"><rect fill="#ffffff" stroke="none" x="424" y="552" width="197" height="190"/></g><g transform="translate(-86,-150) scale(1,1)"><path fill="none" stroke="#000000" d="M 424 552 L 621 552 L 621 742 L 424 742 L 424 552 Z Z" stroke-miterlimit="10"/></g><g transform="translate(-86,-150) scale(1,1)"><path fill="none" stroke="#000000" d="M 424 577 L 621 577" stroke-miterlimit="10"/></g><g transform="translate(-86,-150) scale(1,1)"><path fill="none" stroke="#000000" d="M 424 645 L 621 645" stroke-miterlimit="10"/></g><g transform="translate(-86,-150) scale(1,1)"><g><path fill="none" stroke="none"/><text fill="#000000" stroke="none" font-family="Arial" font-size="13px" font-style="normal" font-weight="bold" text-decoration="none" x="486.5" y="571.5">MainActivity</text></g></g><g transform="translate(-86,-150) scale(1,1)"><g><path fill="none" stroke="none"/><text fill="#000000" stroke="none" font-family="Arial" font-size="13px" font-style="normal" font-weight="normal" text-decoration="none" x="429" y="594.5">-storedRecordList: ListView</text></g></g><g transform="translate(-86,-150) scale(1,1)"><g><path fill="none" stroke="none"/><text fill="#000000" stroke="none" font-family="Arial" font-size="13px" font-style="normal" font-weight="normal" text-decoration="none" x="429" y="609.5">-recordList: ArrayList&lt;Record&gt;</text></g></g><g transform="translate(-86,-150) scale(1,1)"><g><path fill="none" stroke="none"/><text fill="#000000" stroke="none" font-family="Arial" font-size="13px" font-style="normal" font-weight="normal" text-decoration="none" x="429" y="624.5">-adapter: ArrayAdapter&lt;Record&gt;</text></g></g><g transform="translate(-86,-150) scale(1,1)"><g><path fill="none" stroke="none"/><text fill="#000000" stroke="none" font-family="Arial" font-size="13px" font-style="normal" font-weight="normal" text-decoration="none" x="429" y="639.5">-counter: TextView</text></g></g><g transform="translate(-86,-150) scale(1,1)"><g><path fill="none" stroke="none"/><text fill="#000000" stroke="none" font-family="Arial" font-size="13px" font-style="normal" font-weight="normal" text-decoration="none" x="429" y="662.5">#onCreate()</text></g></g><g transform="translate(-86,-150) scale(1,1)"><g><path fill="none" stroke="none"/><text fill="#000000" stroke="none" font-family="Arial" font-size="13px" font-style="normal" font-weight="normal" text-decoration="none" x="429" y="677.5">#onStart()</text></g></g><g transform="translate(-86,-150) scale(1,1)"><g><path fill="none" stroke="none"/><text fill="#000000" stroke="none" font-family="Arial" font-size="13px" font-style="normal" font-weight="normal" text-decoration="none" x="429" y="692.5">#onActivityResult()</text></g></g><g transform="translate(-86,-150) scale(1,1)"><g><path fill="none" stroke="none"/><text fill="#000000" stroke="none" font-family="Arial" font-size="13px" font-style="normal" font-weight="normal" text-decoration="none" x="429" y="707.5">-updateCounter()</text></g></g><g transform="translate(-86,-150) scale(1,1)"><g><path fill="none" stroke="none"/><text fill="#000000" stroke="none" font-family="Arial" font-size="13px" font-style="normal" font-weight="normal" text-decoration="none" x="429" y="722.5">-loadRecords()</text></g></g><g transform="translate(-86,-150) scale(1,1)"><g><path fill="none" stroke="none"/><text fill="#000000" stroke="none" font-family="Arial" font-size="13px" font-style="normal" font-weight="normal" text-decoration="none" x="429" y="737.5">-saveRecords()</text></g></g><g transform="translate(-86,-150) scale(1,1)"><path fill="none" stroke="#000000" d="M 567 551 L 619 441" stroke-miterlimit="10" stroke-dasharray="3"/></g><g transform="translate(-86,-150) scale(1,1)"><path fill="none" stroke="#000000" d="M 618.4623881713119 451.9868545781609 L 619 441 L 610.8509716541605 448.3887304064166" stroke-miterlimit="10"/></g><g transform="translate(-86,-150) scale(1,1)"><g><path fill="none" stroke="none"/><text fill="#000000" stroke="none" font-family="Arial" font-size="13px" font-style="normal" font-weight="normal" text-decoration="none" x="534.5" y="494.5">+creates</text></g></g><g transform="translate(-86,-150) scale(1,1)"><path fill="none" stroke="#000000" d="M 423 566 L 324 484" stroke-miterlimit="10" stroke-dasharray="3"/></g><g transform="translate(-86,-150) scale(1,1)"><path fill="none" stroke="#000000" d="M 334.51178107908055 487.24074968880416 L 324 484 L 329.1413956022847 493.7245077644479" stroke-miterlimit="10"/></g><g transform="translate(-86,-150) scale(1,1)"><g><path fill="none" stroke="none"/><text fill="#000000" stroke="none" font-family="Arial" font-size="13px" font-style="normal" font-weight="normal" text-decoration="none" x="372.5" y="516.5">+creates</text></g></g><g transform="translate(-86,-150) scale(1,1)"><path fill="none" stroke="#000000" d="M 531 276 L 608 375" stroke-miterlimit="10"/></g><g transform="translate(-86,-150) scale(1,1)"><path fill="#000000" stroke="none" d="M 598.4379289881614 369.56246398039013 L 608 375 L 605.0835133377539 364.39367615292934 L 594.4933065026718 357.6342512177208"/></g><g transform="translate(-86,-150) scale(1,1)"><path fill="none" stroke="#000000" d="M 598.4379289881614 369.56246398039013 L 608 375 L 605.0835133377539 364.39367615292934 L 594.4933065026718 357.6342512177208 L 598.4379289881614 369.56246398039013" stroke-miterlimit="10"/></g><g transform="translate(-86,-150) scale(1,1)"><g><path fill="none" stroke="none"/><text fill="#000000" stroke="none" font-family="Arial" font-size="13px" font-style="normal" font-weight="normal" text-decoration="none" x="566.5" y="306.5">+gets added to</text></g></g><g transform="translate(-86,-150) scale(1,1)"><g><path fill="none" stroke="none"/><text fill="#000000" stroke="none" font-family="Arial" font-size="13px" font-style="normal" font-weight="normal" text-decoration="none" x="530.5" y="306.5">1</text></g></g><g transform="translate(-86,-150) scale(1,1)"><g><path fill="none" stroke="none"/><text fill="#000000" stroke="none" font-family="Arial" font-size="13px" font-style="normal" font-weight="normal" text-decoration="none" x="580.5" y="371.5">1</text></g></g></g></svg>